<svg width="888" height="225" viewBox="0 0 888 225" fill="none" xmlns="http://www.w3.org/2000/svg">
<path d="M186.75 210V165.625H199.188C203.438 165.625 206.729 166.583 209.062 168.5C211.396 170.396 212.562 173.083 212.562 176.562C212.562 179.521 211.729 181.844 210.062 183.531C208.417 185.219 206.062 186.135 203 186.281V186.562C207.042 186.625 210.167 187.667 212.375 189.688C214.583 191.688 215.688 194.5 215.688 198.125C215.688 201.896 214.469 204.823 212.031 206.906C209.615 208.969 206.188 210 201.75 210H186.75ZM189.688 207.188H201.812C205.271 207.188 207.948 206.406 209.844 204.844C211.74 203.26 212.688 201.021 212.688 198.125C212.688 194.896 211.75 192.396 209.875 190.625C208.021 188.854 205.396 187.969 202 187.969H189.688V207.188ZM189.688 185.156H199.312C202.562 185.156 205.083 184.406 206.875 182.906C208.667 181.385 209.562 179.271 209.562 176.562C209.562 173.958 208.677 171.958 206.906 170.562C205.156 169.146 202.688 168.438 199.5 168.438H189.688V185.156ZM245.938 210.312L245.625 203H245.25C244.938 204.458 244.188 205.76 243 206.906C241.833 208.052 240.344 208.958 238.531 209.625C236.719 210.292 234.708 210.625 232.5 210.625C229.229 210.625 226.698 209.875 224.906 208.375C223.135 206.875 222.25 204.771 222.25 202.062C222.25 195.146 227.021 191.688 236.562 191.688C238.188 191.688 239.74 191.74 241.219 191.844C242.719 191.927 244.052 192.073 245.219 192.281V190.938C245.219 186.958 244.24 184.083 242.281 182.312C240.344 180.521 237.208 179.594 232.875 179.531L226.312 179.438L226.938 176.562L232.875 176.656C238.25 176.74 242.146 177.948 244.562 180.281C247 182.594 248.219 186.281 248.219 191.344V207.625L253.938 208.031V210L245.938 210.312ZM245.219 194.844C243.906 194.635 242.458 194.51 240.875 194.469C239.312 194.427 237.823 194.406 236.406 194.406C228.969 194.406 225.25 196.885 225.25 201.844C225.25 203.74 225.885 205.198 227.156 206.219C228.427 207.24 230.208 207.75 232.5 207.75C234.917 207.75 237.083 207.344 239 206.531C240.917 205.698 242.427 204.583 243.531 203.188C244.656 201.771 245.219 200.177 245.219 198.406V194.844ZM281.875 210.625C274.396 210.625 270.656 206.771 270.656 199.062V165.938H259.812V163.125H273.594V199.062C273.594 204.854 276.458 207.75 282.188 207.75C283.875 207.75 285.969 207.448 288.469 206.844L288.812 209.625C287.625 209.979 286.479 210.229 285.375 210.375C284.292 210.542 283.125 210.625 281.875 210.625ZM319.375 210.625C311.896 210.625 308.156 206.771 308.156 199.062V165.938H297.312V163.125H311.094V199.062C311.094 204.854 313.958 207.75 319.688 207.75C321.375 207.75 323.469 207.448 325.969 206.844L326.312 209.625C325.125 209.979 323.979 210.229 322.875 210.375C321.792 210.542 320.625 210.625 319.375 210.625ZM358.438 210.312L358.125 203H357.75C357.438 204.458 356.688 205.76 355.5 206.906C354.333 208.052 352.844 208.958 351.031 209.625C349.219 210.292 347.208 210.625 345 210.625C341.729 210.625 339.198 209.875 337.406 208.375C335.635 206.875 334.75 204.771 334.75 202.062C334.75 195.146 339.521 191.688 349.062 191.688C350.688 191.688 352.24 191.74 353.719 191.844C355.219 191.927 356.552 192.073 357.719 192.281V190.938C357.719 186.958 356.74 184.083 354.781 182.312C352.844 180.521 349.708 179.594 345.375 179.531L338.812 179.438L339.438 176.562L345.375 176.656C350.75 176.74 354.646 177.948 357.062 180.281C359.5 182.594 360.719 186.281 360.719 191.344V207.625L366.438 208.031V210L358.438 210.312ZM357.719 194.844C356.406 194.635 354.958 194.51 353.375 194.469C351.812 194.427 350.323 194.406 348.906 194.406C341.469 194.406 337.75 196.885 337.75 201.844C337.75 203.74 338.385 205.198 339.656 206.219C340.927 207.24 342.708 207.75 345 207.75C347.417 207.75 349.583 207.344 351.5 206.531C353.417 205.698 354.927 204.583 356.031 203.188C357.156 201.771 357.719 200.177 357.719 198.406V194.844ZM383.156 195.75V207.188H393.125V210H371.75V207.188H380.219V179.688H373V176.875H382.531L383.094 185.375H383.406C384.365 179.292 387.729 176.25 393.5 176.25C397.083 176.25 399.688 177.229 401.312 179.188C402.938 181.146 403.75 184.312 403.75 188.688H400.75C400.75 185.312 400.167 182.875 399 181.375C397.833 179.875 395.958 179.125 393.375 179.125C389.938 179.125 387.375 180.573 385.688 183.469C384 186.344 383.156 190.438 383.156 195.75ZM422.969 210.625C418.635 210.625 415.344 209.198 413.094 206.344C410.865 203.49 409.75 199.292 409.75 193.75C409.75 188 410.885 183.646 413.156 180.688C415.427 177.729 418.76 176.25 423.156 176.25C429.552 176.25 433.271 178.938 434.312 184.312H434.562V163.125H437.5V210.156L435.219 210.312L434.594 202.188H434.438C433.917 204.792 432.729 206.854 430.875 208.375C429.021 209.875 426.385 210.625 422.969 210.625ZM434.562 193.625V193.281C434.562 183.844 430.885 179.125 423.531 179.125C416.344 179.125 412.75 184 412.75 193.75C412.75 198.333 413.667 201.812 415.5 204.188C417.333 206.562 420.031 207.75 423.594 207.75C427.198 207.75 429.927 206.562 431.781 204.188C433.635 201.792 434.562 198.271 434.562 193.625ZM486 210V204.188H498.625V182.688H487.875V176.875H505.25V204.188H515.438V210H486ZM501.719 171.625C500.448 171.625 499.354 171.177 498.438 170.281C497.542 169.365 497.094 168.271 497.094 167C497.094 165.708 497.542 164.615 498.438 163.719C499.354 162.823 500.448 162.375 501.719 162.375C503.01 162.375 504.104 162.823 505 163.719C505.896 164.615 506.344 165.708 506.344 167C506.344 168.271 505.896 169.365 505 170.281C504.104 171.177 503.01 171.625 501.719 171.625ZM534 210V171.562H521V165.625H553.5V171.562H540.5V210H534ZM577.625 210.625C571.979 210.625 567.615 209.146 564.531 206.188C561.469 203.208 559.938 198.938 559.938 193.375C559.938 187.958 561.24 183.75 563.844 180.75C566.448 177.75 570.125 176.25 574.875 176.25C579.354 176.25 582.812 177.604 585.25 180.312C587.708 183.021 588.938 186.958 588.938 192.125C588.938 193.646 588.875 195.062 588.75 196.375H566.375C566.958 199.146 568.271 201.25 570.312 202.688C572.354 204.104 575.042 204.812 578.375 204.812C579.75 204.812 581.104 204.74 582.438 204.594C583.771 204.427 585.125 204.208 586.5 203.938L587.312 209.75C585.354 210.125 583.562 210.365 581.938 210.469C580.312 210.573 578.875 210.625 577.625 210.625ZM566.125 191.312H582.938C582.938 188.333 582.229 186.052 580.812 184.469C579.396 182.865 577.438 182.062 574.938 182.062C572.375 182.062 570.333 182.865 568.812 184.469C567.292 186.073 566.396 188.354 566.125 191.312ZM610 195.75V204.188H618.125V210H596V204.188H603.375V182.688H597.25V176.875H608.75L609.875 185.375H610.625C611 179.292 614.042 176.25 619.75 176.25C623.167 176.25 625.646 177.229 627.188 179.188C628.729 181.146 629.5 184.312 629.5 188.688H622.938C622.938 186.271 622.573 184.531 621.844 183.469C621.135 182.406 619.979 181.875 618.375 181.875C615.562 181.875 613.458 183.083 612.062 185.5C610.688 187.896 610 191.312 610 195.75ZM658.375 210V184.688C658.375 182.396 657.521 181.25 655.812 181.25C653.646 181.25 652.562 182.75 652.562 185.75V210H646.938V184.062C646.938 182.188 646.062 181.25 644.312 181.25C642.188 181.25 641.125 182.75 641.125 185.75V210H634.5V176.875H640.375L640.812 181H641.312C641.562 177.833 643.458 176.25 647 176.25C648.396 176.25 649.552 176.646 650.469 177.438C651.406 178.229 652.031 179.417 652.344 181H652.875C652.979 179.708 653.49 178.594 654.406 177.656C655.344 176.719 656.688 176.25 658.438 176.25C660.729 176.25 662.396 176.865 663.438 178.094C664.479 179.323 665 181.312 665 184.062V210H658.375ZM673.25 210V202.875C680.104 199.083 685.219 195.146 688.594 191.062C691.99 186.958 693.688 182.729 693.688 178.375C693.688 173.292 691.167 170.75 686.125 170.75C684.438 170.75 682.677 171.24 680.844 172.219C679.01 173.198 677.438 174.5 676.125 176.125L671.812 171.844C673.25 169.781 675.292 168.125 677.938 166.875C680.583 165.625 683.354 165 686.25 165C695.583 165 700.25 169.458 700.25 178.375C700.25 182.854 698.823 187.156 695.969 191.281C693.135 195.385 688.812 199.333 683 203.125V204.062H702.125V210H673.25Z" fill="#221F1D"/>
<mask id="mask0_2_2" style="mask-type:alpha" maskUnits="userSpaceOnUse" x="380" y="15" width="128" height="128">
<path fill-rule="evenodd" clip-rule="evenodd" d="M444 143C479.346 143 508 114.346 508 79C508 43.6538 479.346 15 444 15C408.654 15 380 43.6538 380 79C380 114.346 408.654 143 444 143ZM425.424 47.2109V111H450.625C457.034 111 461.975 109.473 465.449 106.418C468.953 103.363 470.705 99.0508 470.705 93.4805C470.705 88.569 469.193 84.7656 466.168 82.0703C463.173 79.375 458.906 78.0273 453.365 78.0273H451.299V76.5449C456.061 76.3353 459.729 75.0625 462.305 72.7266C464.91 70.3906 466.213 67.1562 466.213 63.0234C466.213 57.9622 464.371 54.069 460.688 51.3438C457.034 48.5885 451.853 47.2109 445.145 47.2109H425.424ZM448.02 100.084H437.283V82.7891H447.391C450.865 82.7891 453.545 83.5378 455.432 85.0352C457.318 86.5326 458.262 88.6439 458.262 91.3691C458.262 94.1244 457.363 96.2656 455.566 97.793C453.77 99.3203 451.254 100.084 448.02 100.084ZM445.324 71.8281H437.283V58.127H444.695C450.745 58.127 453.77 60.2982 453.77 64.6406C453.77 69.4323 450.954 71.8281 445.324 71.8281Z" fill="#221F1D"/>
</mask>
<g mask="url(#mask0_2_2)">
<rect x="380" y="127" width="128" height="16" fill="#E7E5E4"/>
<rect x="380" y="111" width="128" height="16" fill="#06B6D4"/>
<rect x="380" y="95" width="128" height="16" fill="#F43F5E"/>
<rect x="380" y="79" width="128" height="16" fill="#0EA5E9"/>
<rect x="380" y="63" width="128" height="16" fill="#EAB308"/>
<rect x="380" y="47" width="128" height="16" fill="#22C55E"/>
<rect x="380" y="31" width="128" height="16" fill="#EF4444"/>
<rect x="380" y="15" width="128" height="16" fill="#1C1917"/>
</g>
</svg>
